<svg width="24" height="24" viewBox="0 0 24 24" fill="none" xmlns="http://www.w3.org/2000/svg">
<path d="M15.9844 10.6641V7.28906L14.2031 9.07031V10.6641C14.2008 11.8523 13.2188 12.8227 12 12.8203C11.5523 12.8227 11.1375 12.6937 10.7812 12.4688L9.51562 13.7578C10.1977 14.2828 11.0602 14.6016 12 14.6016C14.1984 14.6016 15.9844 12.8414 15.9844 10.6641Z" fill="#FF0000"/>
<path d="M19.5233 10.4531H18.1171C18.014 10.4531 17.9296 10.5375 17.9296 10.6406C17.9296 13.9289 15.2647 16.5937 11.9765 16.5937C10.4999 16.5937 9.14756 16.0547 8.10928 15.164L6.84365 16.4297C7.98975 17.4422 9.44053 18.1242 11.039 18.3281V20.7187H7.64053C7.31475 20.7187 7.05693 21.0539 7.05459 21.4687V22.3125C7.05693 22.4156 7.12256 22.5 7.19522 22.5H16.7577C16.8327 22.5 16.8983 22.4156 16.8983 22.3125V21.4687C16.8983 21.0539 16.6405 20.7187 16.3124 20.7187H12.8202V18.3281C16.6944 17.9086 19.7108 14.6273 19.7108 10.6406C19.7108 10.5375 19.6265 10.4531 19.5233 10.4531ZM19.8304 1.60076L18.8108 0.618729C18.7382 0.548417 18.621 0.548417 18.5483 0.621073L15.5249 3.64451C14.8663 2.37185 13.5233 1.49998 11.9765 1.49998C9.77568 1.49998 7.99209 3.26482 7.99209 5.43748V10.6875C7.99209 10.8445 8.00147 10.9992 8.02022 11.1515L6.42647 12.7453C6.18037 12.0914 6.04443 11.3812 6.04678 10.6406C6.04209 10.5375 5.95772 10.4531 5.85928 10.4531H4.45303C4.3499 10.4531 4.26553 10.5375 4.26553 10.6406C4.26553 11.8828 4.5585 13.0547 5.07647 14.0953L1.86553 17.3062C1.79287 17.3789 1.79287 17.4984 1.86553 17.5711L2.86631 18.5719C2.93896 18.6445 3.0585 18.6445 3.13115 18.5719L19.8327 1.87029L19.8351 1.86795C19.9077 1.79295 19.9054 1.67342 19.8304 1.60076ZM9.77334 9.39842V5.43748C9.77334 4.25154 10.7554 3.28123 11.9765 3.28123C13.0546 3.28123 13.9476 4.03826 14.1397 5.03201L9.77334 9.39842Z" fill="#FF0000"/>
</svg>
