<svg width="73" height="73" viewBox="0 0 73 73" fill="none" xmlns="http://www.w3.org/2000/svg">
<path d="M64.4453 11.4062H8.55469C8.24102 11.4062 7.98438 11.6629 7.98438 11.9766V16.5391C7.98438 16.8527 8.24102 17.1094 8.55469 17.1094H64.4453C64.759 17.1094 65.0156 16.8527 65.0156 16.5391V11.9766C65.0156 11.6629 64.759 11.4062 64.4453 11.4062ZM64.4453 55.8906H8.55469C8.24102 55.8906 7.98438 56.1473 7.98438 56.4609V61.0234C7.98438 61.3371 8.24102 61.5938 8.55469 61.5938H64.4453C64.759 61.5938 65.0156 61.3371 65.0156 61.0234V56.4609C65.0156 56.1473 64.759 55.8906 64.4453 55.8906ZM64.4453 33.6484H8.55469C8.24102 33.6484 7.98438 33.9051 7.98438 34.2188V38.7812C7.98438 39.0949 8.24102 39.3516 8.55469 39.3516H64.4453C64.759 39.3516 65.0156 39.0949 65.0156 38.7812V34.2188C65.0156 33.9051 64.759 33.6484 64.4453 33.6484Z" fill="white"/>
</svg>
