<svg width="14" height="14" viewBox="0 0 14 14" fill="none" xmlns="http://www.w3.org/2000/svg">
<path d="M12.8237 6.07413L4.9443 1.25452C4.77906 1.15379 4.59005 1.0987 4.39656 1.09488C4.20307 1.09106 4.01203 1.13865 3.84295 1.23278C3.67386 1.32692 3.53277 1.46423 3.43409 1.63071C3.33541 1.79718 3.28267 1.98686 3.28125 2.18038V11.8196C3.28267 12.0131 3.33541 12.2028 3.43409 12.3693C3.53277 12.5358 3.67386 12.6731 3.84295 12.7672C4.01203 12.8613 4.20307 12.9089 4.39656 12.9051C4.59005 12.9013 4.77906 12.8462 4.9443 12.7455L12.8237 7.92585C12.9826 7.82914 13.1139 7.69316 13.205 7.53101C13.2961 7.36886 13.344 7.18599 13.344 6.99999C13.344 6.81399 13.2961 6.63112 13.205 6.46897C13.1139 6.30682 12.9826 6.17085 12.8237 6.07413ZM4.59375 11.4215V2.57851L11.8212 6.99999L4.59375 11.4215Z" fill="white"/>
</svg>
