<svg width="36" height="36" viewBox="0 0 36 36" fill="none" xmlns="http://www.w3.org/2000/svg">
<path d="M30.8571 20.1429H20.1429V30.8571C20.1429 31.4255 19.9171 31.9705 19.5152 32.3724C19.1134 32.7742 18.5683 33 18 33C17.4317 33 16.8866 32.7742 16.4848 32.3724C16.0829 31.9705 15.8571 31.4255 15.8571 30.8571V20.1429H5.14286C4.57454 20.1429 4.02949 19.9171 3.62763 19.5152C3.22577 19.1134 3 18.5683 3 18C3 17.4317 3.22577 16.8866 3.62763 16.4848C4.02949 16.0829 4.57454 15.8571 5.14286 15.8571H15.8571V5.14286C15.8571 4.57454 16.0829 4.02949 16.4848 3.62763C16.8866 3.22576 17.4317 3 18 3C18.5683 3 19.1134 3.22576 19.5152 3.62763C19.9171 4.02949 20.1429 4.57454 20.1429 5.14286V15.8571H30.8571C31.4255 15.8571 31.9705 16.0829 32.3724 16.4848C32.7742 16.8866 33 17.4317 33 18C33 18.5683 32.7742 19.1134 32.3724 19.5152C31.9705 19.9171 31.4255 20.1429 30.8571 20.1429Z" fill="white"/>
</svg>
