<svg width="14" height="14" viewBox="0 0 14 14" fill="none" xmlns="http://www.w3.org/2000/svg">
<path d="M12.7143 6.15177L10.0893 8.77677C9.96601 8.90006 9.79881 8.96932 9.62445 8.96932C9.4501 8.96932 9.2829 8.90006 9.15961 8.77677C9.03633 8.65349 8.96707 8.48628 8.96707 8.31193C8.96707 8.13758 9.03633 7.97037 9.15961 7.84708L10.6641 6.34372H9.02344C8.00477 6.34339 7.01488 6.68166 6.20945 7.30534C5.40402 7.92901 4.82873 8.80271 4.57406 9.78904C4.55252 9.87249 4.51475 9.95088 4.46291 10.0197C4.41107 10.0886 4.34617 10.1466 4.27193 10.1903C4.19769 10.2341 4.11555 10.2628 4.0302 10.2749C3.94486 10.2869 3.85798 10.282 3.77453 10.2604C3.69108 10.2389 3.61269 10.2011 3.54384 10.1493C3.47498 10.0974 3.41701 10.0326 3.37324 9.95831C3.32947 9.88407 3.30074 9.80193 3.28871 9.71658C3.27668 9.63124 3.28158 9.54436 3.30313 9.46091C3.63003 8.19255 4.3695 7.06894 5.40511 6.26699C6.44071 5.46504 7.71363 5.0303 9.02344 5.03122H10.6641L9.1607 3.52622C9.03742 3.40294 8.96816 3.23573 8.96816 3.06138C8.96816 2.88703 9.03742 2.71982 9.1607 2.59654C9.28399 2.47325 9.4512 2.40399 9.62555 2.40399C9.7999 2.40399 9.96711 2.47325 10.0904 2.59654L12.7154 5.22154C12.7766 5.28259 12.8251 5.35512 12.8582 5.43498C12.8913 5.51484 12.9082 5.60044 12.9081 5.68688C12.908 5.77332 12.8909 5.85888 12.8576 5.93866C12.8243 6.01844 12.7756 6.09086 12.7143 6.15177ZM10.5 11.1562H2.40625V4.81247C2.40625 4.63843 2.33711 4.47151 2.21404 4.34843C2.09097 4.22536 1.92405 4.15622 1.75 4.15622C1.57595 4.15622 1.40903 4.22536 1.28596 4.34843C1.16289 4.47151 1.09375 4.63843 1.09375 4.81247V11.375C1.09375 11.6651 1.20898 11.9433 1.4141 12.1484C1.61922 12.3535 1.89742 12.4687 2.1875 12.4687H10.5C10.674 12.4687 10.841 12.3996 10.964 12.2765C11.0871 12.1534 11.1563 11.9865 11.1563 11.8125C11.1563 11.6384 11.0871 11.4715 10.964 11.3484C10.841 11.2254 10.674 11.1562 10.5 11.1562Z" fill="#C9DDFF"/>
</svg>
